<?xml version="1.0" encoding="UTF-8" standalone="no"?>
<!DOCTYPE svg PUBLIC "-//W3C//DTD SVG 1.1//EN" "http://www.w3.org/Graphics/SVG/1.1/DTD/svg11.dtd">
<svg version="1.1" xmlns="http://www.w3.org/2000/svg" xmlns:xlink="http://www.w3.org/1999/xlink" preserveAspectRatio="xMidYMid meet" viewBox="8.999999999999993 9 46 46" width="42" height="42"><defs><path d="M30.99 16.77C24.43 16.78 18.77 21.28 17.2 27.52C17.09 27.97 16.68 28.29 16.22 28.29C15.73 28.29 11.85 28.29 11.36 28.29C10.73 28.29 10.25 27.71 10.36 27.09C12.2 17.36 20.74 10 31 10C36.63 10 41.74 12.21 45.51 15.82C45.81 15.51 48.23 13.09 48.53 12.79C49.81 11.51 52 12.42 52 14.23C52 15.36 52 24.45 52 25.58C52 26.7 51.09 27.61 49.97 27.61C48.83 27.61 39.75 27.61 38.62 27.61C36.81 27.61 35.9 25.42 37.18 24.14C37.41 23.91 38.59 22.73 40.71 20.61C36.66 18.05 33.42 16.77 30.99 16.77ZM23.38 34.39C25.19 34.39 26.1 36.58 24.82 37.86C24.47 38.21 21.64 41.04 21.29 41.39C23.93 43.87 27.37 45.23 31.01 45.23C37.57 45.22 43.23 40.73 44.8 34.48C44.91 34.03 45.32 33.71 45.78 33.71C46.27 33.71 50.15 33.71 50.64 33.71C51.27 33.71 51.75 34.29 51.64 34.91C49.8 44.64 41.26 52 31 52C25.37 52 20.26 49.79 16.49 46.18C16.19 46.49 13.77 48.91 13.47 49.21C12.19 50.49 10 49.58 10 47.77C10 46.64 10 37.55 10 36.42C10 35.3 10.91 34.39 12.03 34.39C14.3 34.39 22.25 34.39 23.38 34.39Z" id="a4c8KyaAb"></path></defs><g><g><use xlink:href="#a4c8KyaAb" opacity="1" fill="#000000" fill-opacity="1"></use><g><use xlink:href="#a4c8KyaAb" opacity="1" fill-opacity="0" stroke="#000000" stroke-width="0" stroke-opacity="0"></use></g></g></g></svg>